<svg width="181" height="29" viewBox="0 0 181 29" xmlns="http://www.w3.org/2000/svg"><g stroke="#1FFE9B" stroke-width="2.5" fill="none" fill-rule="evenodd" stroke-linecap="round" stroke-linejoin="round"><path d="M26.32 26.86L14.27 2.14M2.05 26.77l4.64-9.17M42.68 2.14h4.02M50.72 26.86h4.01M42.68 26.86L54.73 2.14M83.33 26.86A12.3 12.3 0 0 0 95.56 14.5 12.3 12.3 0 0 0 83.33 2.14 12.3 12.3 0 0 0 71.1 14.5a12.3 12.3 0 0 0 12.23 12.36zM140.44 10.96l4.5-8.9M132.7 26.77L120.65 2.05M119.05 26.77L107.01 2.05M166.76 26.77a12.3 12.3 0 0 0 12.23-12.36 12.3 12.3 0 0 0-12.23-12.36 12.3 12.3 0 0 0-12.24 12.36 12.3 12.3 0 0 0 12.24 12.36z"></path></g></svg>
